<?xml version="1.0" standalone="no"?>
<!DOCTYPE svg PUBLIC "-//W3C//DTD SVG 20010904//EN"
 "http://www.w3.org/TR/2001/REC-SVG-20010904/DTD/svg10.dtd">
<svg version="1.0" xmlns="http://www.w3.org/2000/svg"
 width="260.000000pt" height="260.000000pt" viewBox="0 0 260.000000 260.000000"
 preserveAspectRatio="xMidYMid meet">
<metadata>
Created by potrace 1.11, written by Peter Selinger 2001-2013
</metadata>
<g transform="translate(0.000000,260.000000) scale(0.100000,-0.100000)"
fill="#000000" stroke="none">
<path d="M1175 2506 c-124 -21 -233 -53 -309 -92 -69 -35 -185 -129 -186 -150
0 -6 -11 -21 -24 -33 -37 -35 -96 -136 -96 -164 0 -13 -7 -40 -15 -60 -50
-119 -64 -505 -24 -658 5 -20 11 -67 14 -105 6 -88 15 -140 28 -161 5 -7 5
-17 2 -23 -3 -5 -1 -10 5 -10 6 0 9 -4 5 -9 -3 -5 0 -13 6 -16 5 -4 8 -13 5
-21 -3 -8 -1 -14 4 -14 5 0 11 -8 14 -17 6 -22 17 -74 18 -90 1 -6 16 -19 34
-29 49 -26 78 -130 81 -288 1 -65 -1 -116 -4 -113 -8 8 -104 -23 -148 -48 -22
-13 -69 -33 -105 -45 -36 -13 -152 -67 -258 -121 -106 -55 -199 -99 -207 -99
-12 0 -15 -15 -15 -70 l0 -69 1298 2 1297 2 0 59 0 60 -110 55 c-160 81 -283
136 -351 156 -32 9 -64 21 -70 26 -7 5 -36 9 -65 8 -33 -2 -54 2 -57 9 -2 7
-8 9 -14 6 -11 -7 -3 240 9 259 4 7 8 14 8 17 1 6 36 119 43 140 3 8 6 20 7
26 10 44 16 51 48 50 17 -1 34 4 36 9 2 6 9 18 16 28 8 11 11 35 7 62 -4 43
-4 45 22 45 14 0 26 3 26 8 1 4 3 34 5 67 2 33 6 107 9 165 2 58 7 116 10 130
7 27 9 241 4 300 -2 19 -11 58 -19 85 -9 28 -26 95 -39 150 -25 113 -67 235
-81 235 -5 0 -9 6 -9 14 0 8 -3 16 -8 18 -4 2 -17 16 -30 32 -35 45 -124 139
-156 163 -16 13 -47 28 -70 33 -41 11 -70 22 -116 45 -22 11 -73 25 -150 41
-60 12 -250 12 -325 0z"/>
</g>
</svg>
